<svg xmlns="http://www.w3.org/2000/svg" width="1600" height="900" viewBox="0 0 1600 900">
  <defs>
    <linearGradient id="bg" x1="0" y1="0" x2="1" y2="1">
      <stop offset="0%" stop-color="#071018"/>
      <stop offset="100%" stop-color="#0d1b25"/>
    </linearGradient>
    <filter id="soft" x="-20%" y="-20%" width="140%" height="140%">
      <feDropShadow dx="0" dy="12" stdDeviation="18" flood-color="#000" flood-opacity=".35"/>
    </filter>
  </defs>
  <rect width="100%" height="100%" fill="url(#bg)"/>
  
<line x1="155" y1="740" x2="1335" y2="740" stroke="#28404f" stroke-width="1" stroke-dasharray="8 8" opacity=".75"/><text x="137" y="749" fill="#aab9c6" font-size="22" font-weight="400" text-anchor="end" opacity="1" font-family="Inter, Pretendard, Apple SD Gothic Neo, system-ui, sans-serif">0</text><line x1="155" y1="616" x2="1335" y2="616" stroke="#28404f" stroke-width="1" stroke-dasharray="8 8" opacity=".75"/><text x="137" y="625" fill="#aab9c6" font-size="22" font-weight="400" text-anchor="end" opacity="1" font-family="Inter, Pretendard, Apple SD Gothic Neo, system-ui, sans-serif">25</text><line x1="155" y1="492" x2="1335" y2="492" stroke="#28404f" stroke-width="1" stroke-dasharray="8 8" opacity=".75"/><text x="137" y="501" fill="#aab9c6" font-size="22" font-weight="400" text-anchor="end" opacity="1" font-family="Inter, Pretendard, Apple SD Gothic Neo, system-ui, sans-serif">50</text><line x1="155" y1="368" x2="1335" y2="368" stroke="#28404f" stroke-width="1" stroke-dasharray="8 8" opacity=".75"/><text x="137" y="377" fill="#aab9c6" font-size="22" font-weight="400" text-anchor="end" opacity="1" font-family="Inter, Pretendard, Apple SD Gothic Neo, system-ui, sans-serif">75</text><line x1="155" y1="244" x2="1335" y2="244" stroke="#28404f" stroke-width="1" stroke-dasharray="8 8" opacity=".75"/><text x="137" y="253" fill="#aab9c6" font-size="22" font-weight="400" text-anchor="end" opacity="1" font-family="Inter, Pretendard, Apple SD Gothic Neo, system-ui, sans-serif">100</text><line x1="155" y1="120" x2="1335" y2="120" stroke="#28404f" stroke-width="1" stroke-dasharray="8 8" opacity=".75"/><text x="137" y="129" fill="#aab9c6" font-size="22" font-weight="400" text-anchor="end" opacity="1" font-family="Inter, Pretendard, Apple SD Gothic Neo, system-ui, sans-serif">125</text><line x1="155" y1="120" x2="155" y2="740" stroke="#28404f" stroke-width="1" opacity=".45"/><text x="155" y="782" fill="#aab9c6" font-size="22" font-weight="400" text-anchor="middle" opacity="1" font-family="Inter, Pretendard, Apple SD Gothic Neo, system-ui, sans-serif">0</text><line x1="363.738722802052" y1="120" x2="363.738722802052" y2="740" stroke="#28404f" stroke-width="1" opacity=".45"/><text x="363.738722802052" y="782" fill="#aab9c6" font-size="22" font-weight="400" text-anchor="middle" opacity="1" font-family="Inter, Pretendard, Apple SD Gothic Neo, system-ui, sans-serif">1K</text><line x1="572.477445604104" y1="120" x2="572.477445604104" y2="740" stroke="#28404f" stroke-width="1" opacity=".45"/><text x="572.477445604104" y="782" fill="#aab9c6" font-size="22" font-weight="400" text-anchor="middle" opacity="1" font-family="Inter, Pretendard, Apple SD Gothic Neo, system-ui, sans-serif">2K</text><line x1="781.2161684061559" y1="120" x2="781.2161684061559" y2="740" stroke="#28404f" stroke-width="1" opacity=".45"/><text x="781.2161684061559" y="782" fill="#aab9c6" font-size="22" font-weight="400" text-anchor="middle" opacity="1" font-family="Inter, Pretendard, Apple SD Gothic Neo, system-ui, sans-serif">3K</text><line x1="989.954891208208" y1="120" x2="989.954891208208" y2="740" stroke="#28404f" stroke-width="1" opacity=".45"/><text x="989.954891208208" y="782" fill="#aab9c6" font-size="22" font-weight="400" text-anchor="middle" opacity="1" font-family="Inter, Pretendard, Apple SD Gothic Neo, system-ui, sans-serif">4K</text><line x1="1198.69361401026" y1="120" x2="1198.69361401026" y2="740" stroke="#28404f" stroke-width="1" opacity=".45"/><text x="1198.69361401026" y="782" fill="#aab9c6" font-size="22" font-weight="400" text-anchor="middle" opacity="1" font-family="Inter, Pretendard, Apple SD Gothic Neo, system-ui, sans-serif">5K</text><line x1="1335" y1="120" x2="1335" y2="740" stroke="#28404f" stroke-width="1" opacity=".45"/><text x="1335" y="782" fill="#aab9c6" font-size="22" font-weight="400" text-anchor="middle" opacity="1" font-family="Inter, Pretendard, Apple SD Gothic Neo, system-ui, sans-serif">5,653</text><line x1="155" y1="740" x2="1335" y2="740" stroke="#d7e0e8" stroke-width="2"/><line x1="155" y1="120" x2="155" y2="740" stroke="#d7e0e8" stroke-width="2"/><text x="745" y="824" fill="#d7e0e8" font-size="24" font-weight="400" text-anchor="middle" opacity="1" font-family="Inter, Pretendard, Apple SD Gothic Neo, system-ui, sans-serif">run count (spin)</text><text x="81" y="430" fill="#d7e0e8" font-size="24" font-weight="400" text-anchor="middle" opacity="1" font-family="Inter, Pretendard, Apple SD Gothic Neo, system-ui, sans-serif" transform="rotate(-90 81 430)">normalized value</text><polyline points="155.0,640.8 157.8,617.7 160.6,640.6 163.4,637.3 166.3,640.3 169.1,640.1 171.9,632.9 174.7,639.7 177.5,639.5 180.3,637.0 183.2,612.5 186.0,620.6 188.8,638.4 191.6,610.1 194.4,619.9 197.2,637.5 200.1,612.8 202.9,636.9 205.7,628.3 208.5,636.2 211.3,620.8 214.1,632.2 217.0,625.8 219.8,634.8 222.6,634.4 225.4,634.0 228.2,633.6 231.0,633.2 233.9,632.8 236.7,632.3 239.5,603.0 242.3,618.1 245.1,631.0 247.9,630.6 250.8,630.1 253.6,625.1 256.4,600.1 259.2,603.2 262.0,628.3 264.8,611.4 267.6,621.4 270.5,600.2 273.3,626.3 276.1,625.8 278.9,613.3 281.7,606.4 284.5,624.3 287.4,622.9 290.2,623.2 293.0,622.7 295.8,622.2 298.6,621.6 301.4,601.4 304.3,617.1 307.1,620.0 309.9,595.6 312.7,618.8 315.5,618.3 318.3,617.7 321.2,617.1 324.0,616.5 326.8,615.9 329.6,595.2 332.4,614.7 335.2,614.1 338.1,613.5 340.9,606.5 343.7,612.3 346.5,611.7 349.3,611.1 352.1,610.4 355.0,609.3 357.8,609.2 360.6,608.5 363.4,607.9 366.2,600.9 369.0,606.6 371.8,592.9 374.7,605.3 377.5,604.6 380.3,588.1 383.1,603.3 385.9,602.6 388.7,601.9 391.6,601.2 394.4,600.6 397.2,599.9 400.0,599.2 402.8,598.5 405.6,568.1 408.5,575.2 411.3,596.4 414.1,593.6 416.9,578.3 419.7,574.5 422.5,575.9 425.4,562.6 428.2,592.1 431.0,591.3 433.8,590.6 436.6,589.9 439.4,558.2 442.3,588.4 445.1,587.6 447.9,586.9 450.7,557.8 453.5,585.4 456.3,579.4 459.2,568.1 462.0,550.8 464.8,582.3 467.6,571.2 470.4,580.8 473.2,580.0 476.1,579.2 478.9,578.4 481.7,577.6 484.5,546.0 487.3,576.0 490.1,538.5 492.9,574.4 495.8,554.0 498.6,537.4 501.4,572.0 504.2,571.2 507.0,553.0 509.8,569.6 512.7,568.8 515.5,535.0 518.3,567.1 521.1,566.3 523.9,541.5 526.7,543.6 529.6,563.8 532.4,557.7 535.2,537.8 538.0,561.2 540.8,536.6 543.6,534.4 546.5,558.7 549.3,557.8 552.1,535.6 554.9,535.1 557.7,526.6 560.5,554.4 563.4,536.0 566.2,526.3 569.0,517.9 571.8,542.9 574.6,550.0 577.4,516.9 580.3,548.2 583.1,547.3 585.9,529.6 588.7,543.8 591.5,513.1 594.3,507.6 597.1,541.0 600.0,541.9 602.8,541.0 605.6,507.0 608.4,535.1 611.2,538.3 614.0,536.1 616.9,536.4 619.7,535.5 622.5,516.1 625.3,513.4 628.1,532.4 630.9,517.5 633.8,530.8 636.6,511.5 639.4,498.9 642.2,503.0 645.0,527.1 647.8,515.0 650.7,525.2 653.5,524.2 656.3,483.5 659.1,522.3 661.9,481.4 664.7,520.4 667.6,502.4 670.4,490.6 673.2,517.5 676.0,516.5 678.8,480.9 681.6,495.6 684.5,513.6 687.3,512.6 690.1,502.1 692.9,510.6 695.7,504.1 698.5,508.6 701.3,466.5 704.2,495.5 707.0,505.6 709.8,479.1 712.6,503.6 715.4,502.6 718.2,494.4 721.1,500.6 723.9,497.6 726.7,498.6 729.5,465.0 732.3,484.2 735.1,495.5 738.0,460.1 740.8,451.5 743.6,492.4 746.4,491.4 749.2,490.4 752.0,461.0 754.9,461.6 757.7,479.1 760.5,486.2 763.3,440.7 766.1,484.1 768.9,450.0 771.8,482.0 774.6,469.5 777.4,479.9 780.2,478.9 783.0,456.1 785.8,476.8 788.7,475.7 791.5,474.6 794.3,473.6 797.1,441.7 799.9,471.4 802.7,438.0 805.5,463.8 808.4,446.6 811.2,467.1 814.0,466.0 816.8,455.3 819.6,463.9 822.4,462.8 825.3,449.7 828.1,460.6 830.9,443.6 833.7,439.2 836.5,457.3 839.3,456.2 842.2,455.1 845.0,454.0 847.8,429.5 850.6,409.6 853.4,446.5 856.2,441.5 859.1,423.1 861.9,447.3 864.7,431.6 867.5,445.1 870.3,396.9 873.1,397.9 876.0,406.7 878.8,440.6 881.6,439.5 884.4,438.3 887.2,426.0 890.0,436.1 892.9,425.0 895.7,387.3 898.5,391.4 901.3,431.5 904.1,430.3 906.9,429.2 909.7,416.5 912.6,413.8 915.4,425.7 918.2,424.6 921.0,419.9 923.8,422.3 926.6,419.8 929.5,419.9 932.3,418.8 935.1,386.0 937.9,416.4 940.7,415.3 943.5,414.1 946.4,412.9 949.2,411.7 952.0,410.6 954.8,409.4 957.6,370.4 960.4,403.7 963.3,405.8 966.1,404.6 968.9,403.5 971.7,383.1 974.5,399.1 977.3,359.0 980.2,375.0 983.0,390.8 985.8,396.3 988.6,344.5 991.4,393.9 994.2,392.7 997.1,351.9 999.9,390.2 1002.7,389.0 1005.5,346.8 1008.3,386.6 1011.1,378.3 1013.9,362.3 1016.8,382.9 1019.6,381.7 1022.4,356.2 1025.2,332.4 1028.0,378.0 1030.8,363.8 1033.7,375.6 1036.5,374.3 1039.3,359.1 1042.1,323.4 1044.9,370.6 1047.7,369.4 1050.6,328.0 1053.4,322.0 1056.2,331.6 1059.0,318.6 1061.8,332.8 1064.6,361.9 1067.5,350.2 1070.3,359.4 1073.1,334.7 1075.9,332.7 1078.7,339.0 1081.5,319.5 1084.4,310.7 1087.2,351.8 1090.0,321.6 1092.8,308.5 1095.6,348.0 1098.4,296.9 1101.3,345.5 1104.1,291.5 1106.9,336.7 1109.7,298.9 1112.5,300.4 1115.3,315.2 1118.2,337.8 1121.0,298.4 1123.8,335.2 1126.6,331.0 1129.4,327.2 1132.2,331.4 1135.0,330.1 1137.9,311.6 1140.7,307.1 1143.5,326.2 1146.3,292.7 1149.1,323.6 1151.9,322.3 1154.8,321.0 1157.6,275.8 1160.4,290.9 1163.2,317.0 1166.0,315.7 1168.8,314.4 1171.7,273.4 1174.5,311.8 1177.3,310.5 1180.1,275.3 1182.9,307.8 1185.7,305.7 1188.6,305.2 1191.4,258.1 1194.2,272.3 1197.0,250.1 1199.8,299.9 1202.6,252.3 1205.5,284.0 1208.3,295.9 1211.1,246.1 1213.9,293.2 1216.7,291.8 1219.5,245.4 1222.4,289.1 1225.2,236.9 1228.0,286.5 1230.8,285.1 1233.6,283.8 1236.4,282.4 1239.2,243.7 1242.1,279.7 1244.9,221.9 1247.7,258.5 1250.5,236.5 1253.3,270.1 1256.1,272.9 1259.0,271.5 1261.8,270.2 1264.6,268.8 1267.4,267.4 1270.2,247.8 1273.0,259.8 1275.9,225.0 1278.7,232.2 1281.5,260.5 1284.3,231.4 1287.1,248.5 1289.9,242.9 1292.8,255.0 1295.6,242.6 1298.4,252.2 1301.2,218.0 1304.0,204.9 1306.8,248.1 1309.7,246.7 1312.5,245.3 1315.3,212.3 1318.1,196.7 1320.9,241.1 1323.7,223.0 1326.6,191.4 1329.4,204.5 1332.2,232.3 1335.0,216.4" fill="none" stroke="#ff4038" stroke-width="4" stroke-linecap="round" stroke-linejoin="round" /><polyline points="155.0,506.9 158.3,502.3 161.6,506.5 164.9,504.0 168.1,504.9 171.4,504.5 174.7,503.6 178.0,505.8 181.3,505.0 184.6,503.9 187.9,501.8 191.2,502.5 194.4,505.6 197.7,501.5 201.0,502.4 204.3,504.2 207.6,501.8 210.9,504.2 214.2,503.1 217.5,504.7 220.7,502.5 224.0,503.5 227.3,502.9 230.6,504.1 233.9,505.5 237.2,504.5 240.5,503.6 243.7,506.0 247.0,505.2 250.3,503.9 253.6,501.1 256.9,502.3 260.2,504.5 263.5,503.8 266.8,504.8 270.0,502.9 273.3,500.9 276.6,501.2 279.9,503.4 283.2,501.9 286.5,502.7 289.8,501.0 293.1,503.3 296.3,504.5 299.6,502.1 302.9,501.5 306.2,504.0 309.5,502.9 312.8,504.7 316.1,504.8 319.3,503.8 322.6,504.7 325.9,501.2 329.2,502.5 332.5,503.2 335.8,500.8 339.1,502.8 342.4,504.0 345.6,503.5 348.9,504.2 352.2,504.2 355.5,504.6 358.8,500.9 362.1,504.8 365.4,504.5 368.6,504.5 371.9,501.9 375.2,503.6 378.5,502.8 381.8,503.1 385.1,502.9 388.4,502.2 391.7,503.8 394.9,504.5 398.2,503.6 401.5,501.6 404.8,503.8 408.1,501.1 411.4,503.5 414.7,504.2 418.0,500.8 421.2,502.2 424.5,503.9 427.8,502.9 431.1,503.8 434.4,502.4 437.7,501.8 441.0,502.4 444.2,501.9 447.5,499.5 450.8,500.0 454.1,503.3 457.4,501.4 460.7,500.3 464.0,500.1 467.3,500.2 470.5,499.3 473.8,503.1 477.1,503.6 480.4,501.4 483.7,502.5 487.0,499.1 490.3,503.3 493.6,502.9 496.8,501.2 500.1,499.2 503.4,501.9 506.7,500.7 510.0,500.0 513.3,498.8 516.6,502.4 519.8,500.2 523.1,503.2 526.4,503.2 529.7,500.9 533.0,501.0 536.3,501.0 539.6,498.7 542.9,501.2 546.1,498.2 549.4,501.8 552.7,499.3 556.0,498.3 559.3,502.5 562.6,503.0 565.9,499.4 569.2,501.4 572.4,501.9 575.7,498.3 579.0,501.5 582.3,500.7 585.6,498.8 588.9,498.9 592.2,502.7 595.4,499.9 598.7,498.6 602.0,501.9 605.3,498.6 608.6,498.5 611.9,501.6 615.2,500.3 618.5,498.7 621.7,498.6 625.0,498.1 628.3,502.0 631.6,498.8 634.9,498.2 638.2,497.7 641.5,499.3 644.7,499.9 648.0,497.7 651.3,502.1 654.6,501.7 657.9,498.6 661.2,499.5 664.5,497.6 667.8,497.3 671.0,499.4 674.3,500.7 677.6,500.3 680.9,497.4 684.2,499.1 687.5,501.5 690.8,499.3 694.1,500.9 697.3,499.5 700.6,498.1 703.9,498.0 707.2,499.2 710.5,498.3 713.8,501.5 717.1,498.0 720.3,497.3 723.6,497.5 726.9,499.0 730.2,498.3 733.5,500.5 736.8,499.4 740.1,496.5 743.4,499.6 746.6,496.5 749.9,498.9 753.2,497.7 756.5,497.1 759.8,501.2 763.1,500.7 766.4,496.6 769.7,497.5 772.9,498.8 776.2,500.3 779.5,497.9 782.8,500.0 786.1,498.1 789.4,500.4 792.7,496.0 795.9,497.7 799.2,499.3 802.5,496.8 805.8,499.9 809.1,498.4 812.4,497.8 815.7,499.8 819.0,498.0 822.2,498.7 825.5,496.2 828.8,497.3 832.1,499.1 835.4,496.0 838.7,495.6 842.0,498.3 845.3,499.0 848.5,499.3 851.8,496.2 855.1,496.3 858.4,497.3 861.7,499.1 865.0,495.2 868.3,499.6 871.5,495.8 874.8,498.3 878.1,496.9 881.4,497.6 884.7,498.5 888.0,496.3 891.3,497.5 894.6,497.4 897.8,499.5 901.1,497.4 904.4,495.7 907.7,497.8 911.0,495.5 914.3,496.9 917.6,496.0 920.8,497.7 924.1,497.9 927.4,496.6 930.7,498.4 934.0,497.5 937.3,496.4 940.6,497.5 943.9,496.1 947.1,495.9 950.4,496.9 953.7,498.8 957.0,497.5 960.3,497.6 963.6,495.5 966.9,494.5 970.2,496.5 973.4,496.2 976.7,495.3 980.0,497.5 983.3,495.8 986.6,498.8 989.9,494.1 993.2,494.2 996.4,494.6 999.7,497.1 1003.0,497.9 1006.3,497.2 1009.6,495.7 1012.9,498.6 1016.2,495.8 1019.5,493.9 1022.7,494.1 1026.0,496.2 1029.3,498.5 1032.6,497.3 1035.9,495.5 1039.2,495.4 1042.5,496.5 1045.8,497.2 1049.0,495.8 1052.3,497.0 1055.6,495.8 1058.9,495.9 1062.2,496.1 1065.5,494.2 1068.8,496.1 1072.0,497.0 1075.3,496.3 1078.6,497.6 1081.9,496.4 1085.2,496.7 1088.5,496.3 1091.8,493.7 1095.1,495.4 1098.3,496.3 1101.6,496.8 1104.9,496.1 1108.2,494.5 1111.5,495.3 1114.8,493.4 1118.1,494.2 1121.4,494.9 1124.6,496.2 1127.9,492.8 1131.2,497.5 1134.5,496.2 1137.8,493.2 1141.1,496.8 1144.4,496.0 1147.6,493.1 1150.9,495.2 1154.2,494.6 1157.5,493.9 1160.8,496.3 1164.1,495.7 1167.4,493.7 1170.7,492.6 1173.9,495.0 1177.2,494.1 1180.5,495.1 1183.8,495.3 1187.1,494.0 1190.4,492.4 1193.7,496.6 1196.9,496.3 1200.2,492.7 1203.5,492.4 1206.8,492.9 1210.1,492.3 1213.4,493.0 1216.7,495.1 1220.0,493.8 1223.2,495.2 1226.5,493.2 1229.8,493.1 1233.1,493.4 1236.4,492.6 1239.7,492.2 1243.0,494.7 1246.3,492.8 1249.5,492.2 1252.8,495.0 1256.1,491.7 1259.4,494.8 1262.7,491.6 1266.0,493.6 1269.3,491.9 1272.5,492.0 1275.8,492.7 1279.1,494.7 1282.4,492.0 1285.7,493.9 1289.0,493.5 1292.3,493.4 1295.6,495.2 1298.8,494.9 1302.1,492.8 1305.4,492.6 1308.7,493.8 1312.0,492.0 1315.3,494.0 1318.6,494.1 1321.9,493.7 1325.1,491.4 1328.4,492.1 1331.7,494.8 1335.0,493.8" fill="none" stroke="#38a2ff" stroke-width="3" stroke-linecap="round" stroke-linejoin="round" /><polyline points="155.0,622.4 158.3,619.7 161.6,622.2 164.9,620.7 168.1,621.2 171.4,621.0 174.7,620.4 178.0,621.8 181.3,621.2 184.6,620.6 187.9,619.3 191.2,619.7 194.4,621.6 197.7,619.1 201.0,619.6 204.3,620.7 207.6,619.2 210.9,620.7 214.2,620.0 217.5,621.0 220.7,619.6 224.0,620.2 227.3,619.9 230.6,620.6 233.9,621.4 237.2,620.8 240.5,620.3 243.7,621.7 247.0,621.2 250.3,620.4 253.6,618.7 256.9,619.4 260.2,620.7 263.5,620.3 266.8,620.9 270.0,619.8 273.3,618.5 276.6,618.7 279.9,620.0 283.2,619.1 286.5,619.6 289.8,618.5 293.1,619.9 296.3,620.6 299.6,619.2 302.9,618.8 306.2,620.3 309.5,619.6 312.8,620.7 316.1,620.8 319.3,620.2 322.6,620.7 325.9,618.6 329.2,619.3 332.5,619.8 335.8,618.3 339.1,619.5 342.4,620.2 345.6,619.9 348.9,620.3 352.2,620.3 355.5,620.5 358.8,618.3 362.1,620.7 365.4,620.4 368.6,620.4 371.9,618.8 375.2,619.9 378.5,619.4 381.8,619.6 385.1,619.4 388.4,619.0 391.7,619.9 394.9,620.3 398.2,619.8 401.5,618.6 404.8,619.9 408.1,618.3 411.4,619.7 414.7,620.1 418.0,618.1 421.2,618.9 424.5,619.9 427.8,619.3 431.1,619.8 434.4,619.0 437.7,618.6 441.0,619.0 444.2,618.7 447.5,617.2 450.8,617.5 454.1,619.5 457.4,618.3 460.7,617.7 464.0,617.5 467.3,617.6 470.5,617.0 473.8,619.3 477.1,619.6 480.4,618.3 483.7,618.9 487.0,616.9 490.3,619.4 493.6,619.1 496.8,618.1 500.1,616.9 503.4,618.5 506.7,617.8 510.0,617.3 513.3,616.6 516.6,618.8 519.8,617.5 523.1,619.2 526.4,619.2 529.7,617.8 533.0,617.9 536.3,617.9 539.6,616.5 542.9,618.0 546.1,616.2 549.4,618.3 552.7,616.8 556.0,616.2 559.3,618.7 562.6,619.0 565.9,616.8 569.2,618.1 572.4,618.3 575.7,616.1 579.0,618.1 582.3,617.6 585.6,616.4 588.9,616.5 592.2,618.7 595.4,617.1 598.7,616.3 602.0,618.3 605.3,616.3 608.6,616.2 611.9,618.0 615.2,617.3 618.5,616.2 621.7,616.2 625.0,615.9 628.3,618.2 631.6,616.3 634.9,615.9 638.2,615.6 641.5,616.6 644.7,616.9 648.0,615.6 651.3,618.2 654.6,618.0 657.9,616.1 661.2,616.6 664.5,615.5 667.8,615.3 671.0,616.6 674.3,617.3 677.6,617.1 680.9,615.3 684.2,616.4 687.5,617.7 690.8,616.4 694.1,617.4 697.3,616.5 700.6,615.7 703.9,615.6 707.2,616.3 710.5,615.8 713.8,617.7 717.1,615.6 720.3,615.1 723.6,615.3 726.9,616.2 730.2,615.7 733.5,617.0 736.8,616.4 740.1,614.6 743.4,616.5 746.6,614.6 749.9,616.1 753.2,615.3 756.5,614.9 759.8,617.4 763.1,617.1 766.4,614.6 769.7,615.1 772.9,615.9 776.2,616.8 779.5,615.4 782.8,616.6 786.1,615.5 789.4,616.8 792.7,614.2 795.9,615.2 799.2,616.1 802.5,614.6 805.8,616.5 809.1,615.6 812.4,615.2 815.7,616.4 819.0,615.3 822.2,615.7 825.5,614.2 828.8,614.9 832.1,616.0 835.4,614.1 838.7,613.8 842.0,615.4 845.3,615.8 848.5,616.0 851.8,614.2 855.1,614.2 858.4,614.8 861.7,615.8 865.0,613.5 868.3,616.1 871.5,613.9 874.8,615.3 878.1,614.5 881.4,614.9 884.7,615.5 888.0,614.1 891.3,614.8 894.6,614.8 897.8,616.0 901.1,614.7 904.4,613.7 907.7,614.9 911.0,613.6 914.3,614.4 917.6,613.9 920.8,614.8 924.1,615.0 927.4,614.2 930.7,615.2 934.0,614.7 937.3,614.0 940.6,614.7 943.9,613.8 947.1,613.7 950.4,614.3 953.7,615.4 957.0,614.7 960.3,614.7 963.6,613.4 966.9,612.8 970.2,614.0 973.4,613.8 976.7,613.3 980.0,614.6 983.3,613.5 986.6,615.3 989.9,612.5 993.2,612.5 996.4,612.8 999.7,614.3 1003.0,614.8 1006.3,614.3 1009.6,613.4 1012.9,615.1 1016.2,613.4 1019.5,612.3 1022.7,612.4 1026.0,613.7 1029.3,615.0 1032.6,614.3 1035.9,613.2 1039.2,613.1 1042.5,613.8 1045.8,614.2 1049.0,613.3 1052.3,614.1 1055.6,613.4 1058.9,613.4 1062.2,613.5 1065.5,612.4 1068.8,613.5 1072.0,614.0 1075.3,613.6 1078.6,614.3 1081.9,613.6 1085.2,613.8 1088.5,613.5 1091.8,612.0 1095.1,613.0 1098.3,613.5 1101.6,613.8 1104.9,613.4 1108.2,612.4 1111.5,612.9 1114.8,611.7 1118.1,612.2 1121.4,612.6 1124.6,613.4 1127.9,611.3 1131.2,614.1 1134.5,613.3 1137.8,611.6 1141.1,613.7 1144.4,613.2 1147.6,611.4 1150.9,612.7 1154.2,612.4 1157.5,611.9 1160.8,613.3 1164.1,613.0 1167.4,611.8 1170.7,611.1 1173.9,612.5 1177.2,612.0 1180.5,612.6 1183.8,612.7 1187.1,611.9 1190.4,610.9 1193.7,613.4 1196.9,613.3 1200.2,611.1 1203.5,610.9 1206.8,611.2 1210.1,610.8 1213.4,611.2 1216.7,612.5 1220.0,611.7 1223.2,612.5 1226.5,611.3 1229.8,611.3 1233.1,611.4 1236.4,610.9 1239.7,610.7 1243.0,612.1 1246.3,611.0 1249.5,610.7 1252.8,612.3 1256.1,610.4 1259.4,612.2 1262.7,610.2 1266.0,611.5 1269.3,610.4 1272.5,610.5 1275.8,610.9 1279.1,612.1 1282.4,610.5 1285.7,611.6 1289.0,611.3 1292.3,611.3 1295.6,612.3 1298.8,612.1 1302.1,610.9 1305.4,610.8 1308.7,611.5 1312.0,610.4 1315.3,611.6 1318.6,611.6 1321.9,611.3 1325.1,610.0 1328.4,610.4 1331.7,612.0 1335.0,611.4" fill="none" stroke="#54d85b" stroke-width="3" stroke-linecap="round" stroke-linejoin="round" /><polyline points="155.0,640.7 158.3,637.2 161.6,640.4 164.9,638.5 168.1,639.2 171.4,638.9 174.7,638.2 178.0,639.9 181.3,639.3 184.6,638.5 187.9,636.8 191.2,637.4 194.4,639.7 197.7,636.7 201.0,637.3 204.3,638.7 207.6,636.9 210.9,638.7 214.2,637.9 217.5,639.0 220.7,637.4 224.0,638.1 227.3,637.7 230.6,638.6 233.9,639.6 237.2,638.9 240.5,638.2 243.7,640.1 247.0,639.4 250.3,638.5 253.6,636.3 256.9,637.3 260.2,638.9 263.5,638.4 266.8,639.2 270.0,637.7 273.3,636.2 276.6,636.4 279.9,638.1 283.2,636.9 286.5,637.5 289.8,636.3 293.1,638.0 296.3,638.9 299.6,637.1 302.9,636.7 306.2,638.6 309.5,637.7 312.8,639.1 316.1,639.1 319.3,638.4 322.6,639.1 325.9,636.5 329.2,637.4 332.5,637.9 335.8,636.2 339.1,637.6 342.4,638.5 345.6,638.2 348.9,638.7 352.2,638.7 355.5,639.0 358.8,636.2 362.1,639.2 365.4,638.9 368.6,638.9 371.9,636.9 375.2,638.3 378.5,637.7 381.8,637.9 385.1,637.7 388.4,637.2 391.7,638.4 394.9,638.9 398.2,638.3 401.5,636.8 404.8,638.4 408.1,636.3 411.4,638.2 414.7,638.7 418.0,636.1 421.2,637.2 424.5,638.5 427.8,637.8 431.1,638.4 434.4,637.3 437.7,636.9 441.0,637.4 444.2,637.0 447.5,635.2 450.8,635.6 454.1,638.1 457.4,636.6 460.7,635.8 464.0,635.6 467.3,635.7 470.5,635.0 473.8,637.9 477.1,638.2 480.4,636.6 483.7,637.4 487.0,634.9 490.3,638.1 493.6,637.7 496.8,636.5 500.1,635.0 503.4,637.0 506.7,636.1 510.0,635.5 513.3,634.7 516.6,637.4 519.8,635.8 523.1,637.9 526.4,638.0 529.7,636.2 533.0,636.4 536.3,636.3 539.6,634.6 542.9,636.5 546.1,634.3 549.4,636.9 552.7,635.1 556.0,634.3 559.3,637.5 562.6,637.8 565.9,635.1 569.2,636.7 572.4,637.0 575.7,634.3 579.0,636.7 582.3,636.1 585.6,634.7 588.9,634.8 592.2,637.6 595.4,635.5 598.7,634.6 602.0,637.0 605.3,634.5 608.6,634.5 611.9,636.8 615.2,635.8 618.5,634.6 621.7,634.6 625.0,634.2 628.3,637.1 631.6,634.7 634.9,634.2 638.2,633.9 641.5,635.1 644.7,635.5 648.0,633.9 651.3,637.2 654.6,636.9 657.9,634.5 661.2,635.2 664.5,633.8 667.8,633.6 671.0,635.2 674.3,636.1 677.6,635.8 680.9,633.6 684.2,635.0 687.5,636.7 690.8,635.0 694.1,636.3 697.3,635.2 700.6,634.2 703.9,634.1 707.2,635.0 710.5,634.3 713.8,636.7 717.1,634.1 720.3,633.5 723.6,633.8 726.9,634.9 730.2,634.3 733.5,636.0 736.8,635.2 740.1,633.0 743.4,635.3 746.6,633.0 749.9,634.8 753.2,633.9 756.5,633.4 759.8,636.5 763.1,636.2 766.4,633.1 769.7,633.7 772.9,634.7 776.2,635.9 779.5,634.1 782.8,635.7 786.1,634.2 789.4,635.9 792.7,632.6 795.9,633.9 799.2,635.1 802.5,633.2 805.8,635.6 809.1,634.4 812.4,633.9 815.7,635.4 819.0,634.1 822.2,634.7 825.5,632.8 828.8,633.6 832.1,635.0 835.4,632.7 838.7,632.3 842.0,634.3 845.3,634.9 848.5,635.1 851.8,632.8 855.1,632.9 858.4,633.6 861.7,634.9 865.0,632.1 868.3,635.3 871.5,632.5 874.8,634.3 878.1,633.3 881.4,633.8 884.7,634.5 888.0,632.8 891.3,633.8 894.6,633.7 897.8,635.3 901.1,633.6 904.4,632.4 907.7,634.0 911.0,632.3 914.3,633.3 917.6,632.7 920.8,633.9 924.1,634.1 927.4,633.1 930.7,634.4 934.0,633.7 937.3,632.9 940.6,633.7 943.9,632.7 947.1,632.6 950.4,633.3 953.7,634.7 957.0,633.8 960.3,633.8 963.6,632.3 966.9,631.5 970.2,633.0 973.4,632.8 976.7,632.1 980.0,633.8 983.3,632.5 986.6,634.7 989.9,631.2 993.2,631.3 996.4,631.6 999.7,633.5 1003.0,634.1 1006.3,633.5 1009.6,632.5 1012.9,634.6 1016.2,632.5 1019.5,631.1 1022.7,631.2 1026.0,632.8 1029.3,634.5 1032.6,633.6 1035.9,632.3 1039.2,632.2 1042.5,633.0 1045.8,633.6 1049.0,632.5 1052.3,633.4 1055.6,632.5 1058.9,632.6 1062.2,632.7 1065.5,631.3 1068.8,632.7 1072.0,633.4 1075.3,632.9 1078.6,633.8 1081.9,632.9 1085.2,633.2 1088.5,632.9 1091.8,630.9 1095.1,632.2 1098.3,632.9 1101.6,633.2 1104.9,632.7 1108.2,631.5 1111.5,632.1 1114.8,630.7 1118.1,631.3 1121.4,631.9 1124.6,632.8 1127.9,630.3 1131.2,633.8 1134.5,632.8 1137.8,630.6 1141.1,633.3 1144.4,632.7 1147.6,630.5 1150.9,632.1 1154.2,631.6 1157.5,631.1 1160.8,632.9 1164.1,632.4 1167.4,630.9 1170.7,630.1 1173.9,631.9 1177.2,631.3 1180.5,632.0 1183.8,632.2 1187.1,631.2 1190.4,629.9 1193.7,633.1 1196.9,632.9 1200.2,630.2 1203.5,630.0 1206.8,630.3 1210.1,629.9 1213.4,630.4 1216.7,632.0 1220.0,631.1 1223.2,632.1 1226.5,630.6 1229.8,630.5 1233.1,630.8 1236.4,630.1 1239.7,629.8 1243.0,631.7 1246.3,630.3 1249.5,629.8 1252.8,631.9 1256.1,629.5 1259.4,631.8 1262.7,629.4 1266.0,630.9 1269.3,629.7 1272.5,629.7 1275.8,630.2 1279.1,631.8 1282.4,629.7 1285.7,631.1 1289.0,630.9 1292.3,630.7 1295.6,632.1 1298.8,631.9 1302.1,630.3 1305.4,630.2 1308.7,631.1 1312.0,629.7 1315.3,631.2 1318.6,631.3 1321.9,631.0 1325.1,629.3 1328.4,629.8 1331.7,631.8 1335.0,631.1" fill="none" stroke="#ffb020" stroke-width="3" stroke-linecap="round" stroke-linejoin="round" />
<line x1="410" y1="70" x2="462" y2="70" stroke="#ff4038" stroke-width="5" stroke-linecap="round"/><text x="478" y="78" fill="#edf4fa" font-size="24" font-weight="400" text-anchor="start" opacity="1" font-family="Inter, Pretendard, Apple SD Gothic Neo, system-ui, sans-serif">p99</text><line x1="630" y1="70" x2="682" y2="70" stroke="#38a2ff" stroke-width="5" stroke-linecap="round"/><text x="698" y="78" fill="#edf4fa" font-size="24" font-weight="400" text-anchor="start" opacity="1" font-family="Inter, Pretendard, Apple SD Gothic Neo, system-ui, sans-serif">JS heap</text><line x1="850" y1="70" x2="902" y2="70" stroke="#54d85b" stroke-width="5" stroke-linecap="round"/><text x="918" y="78" fill="#edf4fa" font-size="24" font-weight="400" text-anchor="start" opacity="1" font-family="Inter, Pretendard, Apple SD Gothic Neo, system-ui, sans-serif">texture</text><line x1="1070" y1="70" x2="1122" y2="70" stroke="#ffb020" stroke-width="5" stroke-linecap="round"/><text x="1138" y="78" fill="#edf4fa" font-size="24" font-weight="400" text-anchor="start" opacity="1" font-family="Inter, Pretendard, Apple SD Gothic Neo, system-ui, sans-serif">rAF/frame</text>

</svg>
